<svg width="1920" height="7737" viewBox="0 0 1920 7737" fill="none" xmlns="http://www.w3.org/2000/svg">
<g filter="url(#filter0_f_2_155)">
<path d="M1930.53 2.25471C1338.53 686.755 457.035 559.255 514.035 1183.25L454.034 1183.25C411.035 452.755 1095.53 340.255 1029.03 2.25466L1826.54 2.25473L1930.53 2.25471Z" fill="url(#paint0_linear_2_155)" fill-opacity="0.04"/>
</g>
<g filter="url(#filter1_f_2_155)">
<path d="M523.532 1184.75C466.532 560.755 1338.53 686.754 1930.53 2.25437L1826.54 2.25439C1350.41 640.257 398.443 557.518 512.032 1195.75C581.976 1588.75 1034.03 1545.25 1303.53 1376.75C1641.66 1136.65 1272.86 800.265 1928.54 630.755L1928.54 578.698C1225.04 777.755 1632.48 1117.7 1295.03 1366.25C1109.03 1503.25 569.532 1521.25 523.532 1184.75Z" fill="url(#paint1_linear_2_155)" fill-opacity="0.2"/>
</g>
<g filter="url(#filter2_f_2_155)">
<path d="M603.532 1184.75C546.532 560.755 1418.53 686.754 2010.53 2.25437L1906.54 2.25439C1430.41 640.257 478.443 557.518 592.032 1195.75C661.976 1588.75 1114.03 1545.25 1383.53 1376.75C1721.66 1136.65 1352.86 800.265 2008.54 630.755L2008.54 578.698C1305.04 777.755 1712.48 1117.7 1375.03 1366.25C1189.03 1503.25 649.532 1521.25 603.532 1184.75Z" fill="url(#paint2_linear_2_155)" fill-opacity="0.2"/>
</g>
<g filter="url(#filter3_f_2_155)">
<path d="M2218.03 3238.26L2218.03 3191.26L1972.62 2508.06L1945.15 2497.58C1723.63 2809.36 1620.45 2547.02 1425.65 2677.04C1282.46 2785.28 1280.55 3037.26 1361.53 3151.26C1480.53 3318.75 1785.5 3360.93 2218.03 3238.26Z" fill="url(#paint3_linear_2_155)" fill-opacity="0.1"/>
</g>
<g filter="url(#filter4_f_2_155)">
<path d="M1412.03 3181.75C1520.12 3289.38 1737.63 3365.7 2218.03 3191.26L2218.03 3238.26C1785.5 3360.93 1480.53 3318.75 1361.53 3151.26C1280.55 3037.26 1282.46 2785.28 1425.65 2677.04C1620.45 2547.02 1723.63 2809.36 1945.15 2497.58L1972.62 2508.06C1725.87 2839.13 1628.6 2555.68 1429.48 2683.64C1319.73 2754.18 1294.03 3064.25 1412.03 3181.75Z" fill="url(#paint4_linear_2_155)" fill-opacity="0.15"/>
</g>
<g filter="url(#filter5_f_2_155)">
<path d="M176.276 4969.46C-53.396 5092.2 43.8331 5606.24 -237.617 5274.9C-237.617 5274.9 -228.487 5663.26 -237.617 5679.18C163.017 6274.68 207.766 5381.68 299.517 5218.18C422.956 4998.21 606.44 4907.64 492.056 4682.82C387.739 4473.13 -9.70223 4389.43 -17.8184 3956.53L-46.861 3951.97C-46.7569 4444.33 367.032 4500.71 476.121 4710.76C536.25 4826.54 323.144 4890.98 176.276 4969.46Z" fill="url(#paint5_linear_2_155)" fill-opacity="0.15"/>
</g>
<g filter="url(#filter6_f_2_155)">
<path d="M176.275 4969.46C-53.3966 5092.2 43.8325 5606.24 -237.618 5274.9L-260.995 5315.67C279.79 5698.37 -69.4078 5184.79 207.765 4995.87C323.311 4917.12 562.439 4847.95 492.055 4682.82C387.738 4473.13 -9.70274 4389.43 -17.8189 3956.53L-46.8615 3951.96C-46.7573 4444.33 367.031 4500.71 476.121 4710.76C536.25 4826.54 323.143 4890.97 176.275 4969.46Z" fill="url(#paint6_linear_2_155)" fill-opacity="0.1"/>
</g>
<g opacity="0.1" filter="url(#filter7_f_2_155)">
<path d="M208.766 4974.18C-49.9824 5094.68 43.8332 5606.24 -237.617 5274.9L-260.995 5315.67C279.791 5698.37 -68.4073 5163.09 208.766 4974.18Z" fill="url(#paint7_linear_2_155)" fill-opacity="0.2"/>
</g>
<g filter="url(#filter8_f_2_155)">
<path d="M1398.03 3181.75C1302.03 3061.75 1300.03 2771.26 1414.53 2680.76C1271.34 2789 1263.03 3075.25 1398.03 3181.75Z" fill="url(#paint8_linear_2_155)" fill-opacity="0.25"/>
</g>
<g opacity="0.2" filter="url(#filter9_f_2_155)">
<path d="M1930.53 2.25472L1826.54 2.25474C1740.82 117.11 1590.75 265.572 1484.03 341.255C1611.44 258.256 1815.91 134.783 1930.53 2.25472Z" fill="url(#paint9_linear_2_155)" fill-opacity="0.35"/>
</g>
<g filter="url(#filter10_f_2_155)">
<path d="M1143.4 7542.6C996.116 7061.84 1709.43 7017.17 2061.97 6382.27L2061.97 5892C1853.3 6253.32 942.489 6985.75 1096.27 7552.45L1143.4 7542.6Z" fill="url(#paint10_linear_2_155)" fill-opacity="0.1"/>
</g>
<g filter="url(#filter11_f_2_155)">
<path d="M1151.11 7542.21C1003.82 7061.46 1709.44 7017.17 2061.97 6382.27L1980.28 6399.36C1711.12 6978.7 949.81 7070.1 1143.88 7552.74C1263.38 7849.93 1611.3 7741.5 1795.3 7564.88C2021.44 7320.74 1676.5 7117.11 2163.65 6876.25L2155.1 6835.36C1635.24 7107.29 2011.12 7307.36 1786.9 7558.03C1663.31 7696.19 1242.52 7798.96 1151.11 7542.21Z" fill="url(#paint11_linear_2_155)" fill-opacity="0.1"/>
</g>
<g filter="url(#filter12_f_2_155)">
<path d="M2163.65 6829.26L2163.65 6876.25C1676.5 7117.11 2021.44 7320.74 1795.3 7564.88C1924.94 7300.32 1462.35 6973.7 2163.65 6596.95L2163.65 6829.26Z" fill="url(#paint12_linear_2_155)" fill-opacity="0.1"/>
</g>
<g filter="url(#filter13_f_2_155)">
<path d="M2061.97 6382.27L1980.28 6399.36C1931.83 6503.65 1838.35 6644.91 1766.96 6721.89C1853.4 6635.77 1993.71 6505.19 2061.97 6382.27Z" fill="url(#paint13_linear_2_155)" fill-opacity="0.2"/>
</g>
<defs>
<filter id="filter0_f_2_155" x="402.088" y="-47.7451" width="1578.45" height="1281" filterUnits="userSpaceOnUse" color-interpolation-filters="sRGB">
<feFlood flood-opacity="0" result="BackgroundImageFix"/>
<feBlend mode="normal" in="SourceGraphic" in2="BackgroundImageFix" result="shape"/>
<feGaussianBlur stdDeviation="25" result="effect1_foregroundBlur_2_155"/>
</filter>
<filter id="filter1_f_2_155" x="472.703" y="-27.7456" width="1487.83" height="1557.79" filterUnits="userSpaceOnUse" color-interpolation-filters="sRGB">
<feFlood flood-opacity="0" result="BackgroundImageFix"/>
<feBlend mode="normal" in="SourceGraphic" in2="BackgroundImageFix" result="shape"/>
<feGaussianBlur stdDeviation="15" result="effect1_foregroundBlur_2_155"/>
</filter>
<filter id="filter2_f_2_155" x="552.703" y="-27.7456" width="1487.83" height="1557.79" filterUnits="userSpaceOnUse" color-interpolation-filters="sRGB">
<feFlood flood-opacity="0" result="BackgroundImageFix"/>
<feBlend mode="normal" in="SourceGraphic" in2="BackgroundImageFix" result="shape"/>
<feGaussianBlur stdDeviation="15" result="effect1_foregroundBlur_2_155"/>
</filter>
<filter id="filter3_f_2_155" x="1257.68" y="2447.58" width="1010.35" height="911.331" filterUnits="userSpaceOnUse" color-interpolation-filters="sRGB">
<feFlood flood-opacity="0" result="BackgroundImageFix"/>
<feBlend mode="normal" in="SourceGraphic" in2="BackgroundImageFix" result="shape"/>
<feGaussianBlur stdDeviation="25" result="effect1_foregroundBlur_2_155"/>
</filter>
<filter id="filter4_f_2_155" x="1277.68" y="2467.58" width="970.353" height="871.331" filterUnits="userSpaceOnUse" color-interpolation-filters="sRGB">
<feFlood flood-opacity="0" result="BackgroundImageFix"/>
<feBlend mode="normal" in="SourceGraphic" in2="BackgroundImageFix" result="shape"/>
<feGaussianBlur stdDeviation="15" result="effect1_foregroundBlur_2_155"/>
</filter>
<filter id="filter5_f_2_155" x="-267.617" y="3921.97" width="825.729" height="1989.48" filterUnits="userSpaceOnUse" color-interpolation-filters="sRGB">
<feFlood flood-opacity="0" result="BackgroundImageFix"/>
<feBlend mode="normal" in="SourceGraphic" in2="BackgroundImageFix" result="shape"/>
<feGaussianBlur stdDeviation="15" result="effect1_foregroundBlur_2_155"/>
</filter>
<filter id="filter6_f_2_155" x="-290.995" y="3921.96" width="825.782" height="1561.91" filterUnits="userSpaceOnUse" color-interpolation-filters="sRGB">
<feFlood flood-opacity="0" result="BackgroundImageFix"/>
<feBlend mode="normal" in="SourceGraphic" in2="BackgroundImageFix" result="shape"/>
<feGaussianBlur stdDeviation="15" result="effect1_foregroundBlur_2_155"/>
</filter>
<filter id="filter7_f_2_155" x="-290.995" y="4944.18" width="529.761" height="536.162" filterUnits="userSpaceOnUse" color-interpolation-filters="sRGB">
<feFlood flood-opacity="0" result="BackgroundImageFix"/>
<feBlend mode="normal" in="SourceGraphic" in2="BackgroundImageFix" result="shape"/>
<feGaussianBlur stdDeviation="15" result="effect1_foregroundBlur_2_155"/>
</filter>
<filter id="filter8_f_2_155" x="1271.75" y="2650.76" width="172.779" height="561" filterUnits="userSpaceOnUse" color-interpolation-filters="sRGB">
<feFlood flood-opacity="0" result="BackgroundImageFix"/>
<feBlend mode="normal" in="SourceGraphic" in2="BackgroundImageFix" result="shape"/>
<feGaussianBlur stdDeviation="15" result="effect1_foregroundBlur_2_155"/>
</filter>
<filter id="filter9_f_2_155" x="1454.03" y="-27.7451" width="506.502" height="399" filterUnits="userSpaceOnUse" color-interpolation-filters="sRGB">
<feFlood flood-opacity="0" result="BackgroundImageFix"/>
<feBlend mode="normal" in="SourceGraphic" in2="BackgroundImageFix" result="shape"/>
<feGaussianBlur stdDeviation="15" result="effect1_foregroundBlur_2_155"/>
</filter>
<filter id="filter10_f_2_155" x="1028.88" y="5842" width="1083.09" height="1760.45" filterUnits="userSpaceOnUse" color-interpolation-filters="sRGB">
<feFlood flood-opacity="0" result="BackgroundImageFix"/>
<feBlend mode="normal" in="SourceGraphic" in2="BackgroundImageFix" result="shape"/>
<feGaussianBlur stdDeviation="25" result="effect1_foregroundBlur_2_155"/>
</filter>
<filter id="filter11_f_2_155" x="1082.59" y="6352.27" width="1111.06" height="1416.01" filterUnits="userSpaceOnUse" color-interpolation-filters="sRGB">
<feFlood flood-opacity="0" result="BackgroundImageFix"/>
<feBlend mode="normal" in="SourceGraphic" in2="BackgroundImageFix" result="shape"/>
<feGaussianBlur stdDeviation="15" result="effect1_foregroundBlur_2_155"/>
</filter>
<filter id="filter12_f_2_155" x="1733.75" y="6566.95" width="459.902" height="1027.93" filterUnits="userSpaceOnUse" color-interpolation-filters="sRGB">
<feFlood flood-opacity="0" result="BackgroundImageFix"/>
<feBlend mode="normal" in="SourceGraphic" in2="BackgroundImageFix" result="shape"/>
<feGaussianBlur stdDeviation="15" result="effect1_foregroundBlur_2_155"/>
</filter>
<filter id="filter13_f_2_155" x="1736.96" y="6352.27" width="355.011" height="399.622" filterUnits="userSpaceOnUse" color-interpolation-filters="sRGB">
<feFlood flood-opacity="0" result="BackgroundImageFix"/>
<feBlend mode="normal" in="SourceGraphic" in2="BackgroundImageFix" result="shape"/>
<feGaussianBlur stdDeviation="15" result="effect1_foregroundBlur_2_155"/>
</filter>
<linearGradient id="paint0_linear_2_155" x1="1082.03" y1="635.255" x2="792.035" y2="440.255" gradientUnits="userSpaceOnUse">
<stop stop-color="#F9D073"/>
<stop offset="1" stop-color="#F9D073" stop-opacity="0"/>
</linearGradient>
<linearGradient id="paint1_linear_2_155" x1="1617.76" y1="57.8617" x2="1692.03" y2="471.255" gradientUnits="userSpaceOnUse">
<stop stop-color="#F9D073"/>
<stop offset="1" stop-color="#F9D073" stop-opacity="0.5"/>
<stop offset="1" stop-color="#F9D073" stop-opacity="0.4"/>
</linearGradient>
<linearGradient id="paint2_linear_2_155" x1="1697.76" y1="57.8617" x2="1772.03" y2="471.255" gradientUnits="userSpaceOnUse">
<stop stop-color="#F9D073"/>
<stop offset="1" stop-color="#F9D073" stop-opacity="0.5"/>
<stop offset="1" stop-color="#F9D073" stop-opacity="0.4"/>
</linearGradient>
<linearGradient id="paint3_linear_2_155" x1="1485.53" y1="2598.75" x2="1615.45" y2="3140.49" gradientUnits="userSpaceOnUse">
<stop stop-color="#F9D073"/>
<stop offset="1" stop-color="#F9D073" stop-opacity="0"/>
</linearGradient>
<linearGradient id="paint4_linear_2_155" x1="1618.03" y1="2620.25" x2="1439.53" y2="3113.75" gradientUnits="userSpaceOnUse">
<stop stop-color="#F9D073"/>
<stop offset="1" stop-color="#F9D073" stop-opacity="0.5"/>
<stop offset="1" stop-color="#F9D073" stop-opacity="0.4"/>
</linearGradient>
<linearGradient id="paint5_linear_2_155" x1="295.017" y1="5321.68" x2="64.5166" y2="5231.68" gradientUnits="userSpaceOnUse">
<stop stop-color="#F9D073" stop-opacity="0"/>
<stop offset="1" stop-color="#F9D073"/>
</linearGradient>
<linearGradient id="paint6_linear_2_155" x1="396.173" y1="4361.41" x2="54.1876" y2="5457.08" gradientUnits="userSpaceOnUse">
<stop stop-color="#F9D073" stop-opacity="0"/>
<stop offset="0.740573" stop-color="#F9D073"/>
<stop offset="1" stop-color="#F9D073" stop-opacity="0"/>
</linearGradient>
<linearGradient id="paint7_linear_2_155" x1="396.174" y1="4361.41" x2="54.1888" y2="5457.08" gradientUnits="userSpaceOnUse">
<stop stop-color="#F9D073" stop-opacity="0"/>
<stop offset="0.740573" stop-color="#F9D073"/>
<stop offset="1" stop-color="#F9D073" stop-opacity="0"/>
</linearGradient>
<linearGradient id="paint8_linear_2_155" x1="1604.03" y1="2620.25" x2="1425.53" y2="3113.75" gradientUnits="userSpaceOnUse">
<stop stop-color="#F9D073"/>
<stop offset="1" stop-color="#F9D073" stop-opacity="0.5"/>
<stop offset="1" stop-color="#F9D073" stop-opacity="0.4"/>
</linearGradient>
<linearGradient id="paint9_linear_2_155" x1="1820.03" y1="93.7549" x2="1484.53" y2="345.255" gradientUnits="userSpaceOnUse">
<stop stop-color="#F9D073"/>
<stop offset="1" stop-color="#F9D073" stop-opacity="0.4"/>
<stop offset="1" stop-color="#F9D073" stop-opacity="0.5"/>
</linearGradient>
<linearGradient id="paint10_linear_2_155" x1="1750.45" y1="6755.47" x2="1572.29" y2="6646.3" gradientUnits="userSpaceOnUse">
<stop stop-color="#F9D073"/>
<stop offset="1" stop-color="#F9D073" stop-opacity="0"/>
</linearGradient>
<linearGradient id="paint11_linear_2_155" x1="1825.44" y1="6477.33" x2="1951.69" y2="6789.83" gradientUnits="userSpaceOnUse">
<stop stop-color="#F9D073"/>
<stop offset="1" stop-color="#F9D073" stop-opacity="0.5"/>
<stop offset="1" stop-color="#F9D073" stop-opacity="0.4"/>
</linearGradient>
<linearGradient id="paint12_linear_2_155" x1="1962.68" y1="7088.85" x2="1810.39" y2="7034.2" gradientUnits="userSpaceOnUse">
<stop stop-color="#F9D073"/>
<stop offset="1" stop-color="#F9D073" stop-opacity="0"/>
</linearGradient>
<linearGradient id="paint13_linear_2_155" x1="1990.21" y1="6472.29" x2="1768.01" y2="6724.95" gradientUnits="userSpaceOnUse">
<stop stop-color="#F9D073"/>
<stop offset="1" stop-color="#F9D073" stop-opacity="0.4"/>
<stop offset="1" stop-color="#F9D073" stop-opacity="0.5"/>
</linearGradient>
</defs>
</svg>
