<svg width="32" height="32" viewBox="0 0 32 32" fill="none" xmlns="http://www.w3.org/2000/svg">
<path fill-rule="evenodd" clip-rule="evenodd" d="M27.2946 9.61141L16.0005 2.82353L4.70634 9.61141L4.70634 15.374L1.88281 18.9881V9.61141C1.88281 8.62035 2.40241 7.70186 3.25185 7.19133L14.546 0.403452C15.441 -0.134484 16.5599 -0.134484 17.455 0.403452L28.7491 7.19133C29.5985 7.70186 30.1181 8.62035 30.1181 9.61141V22.3883C30.1181 23.3794 29.5985 24.2979 28.7491 24.8084L17.4549 31.5963C16.5599 32.1342 15.441 32.1342 14.546 31.5963L3.28965 24.8311L3.25185 24.8084C2.40241 24.2979 1.88281 23.3794 1.88281 22.3883V22.0456L2.56193 21.1764L4.70634 18.4315L7.09644 15.3722C7.69171 14.6102 8.76744 14.4232 9.58495 14.9395L12.7938 16.9662C13.2019 17.2239 13.7387 17.1312 14.0367 16.7515L19.3351 10.0016C19.9285 9.24558 20.9962 9.05804 21.8117 9.56656L25.4122 11.8116V15.139L21.7513 12.8563C21.3435 12.6021 20.8097 12.6958 20.513 13.0739L15.2086 19.8315C14.6126 20.5908 13.5389 20.7762 12.7227 20.2608L9.51718 18.2362C9.10842 17.9781 8.57056 18.0716 8.27293 18.4525L5.04096 22.5895L16.0005 29.1762L27.2946 22.3883V9.61141Z" fill="#F9D073"/>
<path d="M27.2941 9.61141L16 2.82353V0C16.5035 0 17.007 0.134484 17.4545 0.403452L28.7486 7.19133C29.5981 7.70186 30.1176 8.62035 30.1176 9.61141V22.3883C30.1176 23.3794 29.5981 24.2979 28.7486 24.8084L17.4545 31.5963C17.007 31.8653 16.5035 31.9998 16 31.9998V29.1762L27.2941 22.3883V9.61141Z" fill="#B28736"/>
<path d="M21.8113 9.56656L25.4118 11.8116V15.139L21.7509 12.8563C21.3431 12.6021 20.8093 12.6958 20.5125 13.0739L16 18.8227V14.2498L19.3346 10.0016C19.9281 9.24558 20.9957 9.05804 21.8113 9.56656Z" fill="#B28736"/>
</svg>
