<svg width="25" height="24" viewBox="0 0 25 24" fill="none" xmlns="http://www.w3.org/2000/svg">
<path d="M2.9895 10.8924C8.80558 8.30521 12.6838 6.59955 14.6244 5.77538C20.1649 3.42246 21.3162 3.01371 22.0667 3.00013C22.2317 2.9973 22.6007 3.03905 22.8397 3.23705C23.0416 3.4043 23.0971 3.63021 23.1237 3.78871C23.1502 3.9473 23.1833 4.30846 23.157 4.59063C22.8567 7.81163 21.5577 15.6282 20.8967 19.2358C20.617 20.7623 20.0663 21.2741 19.5332 21.3242C18.3747 21.433 17.4948 20.5425 16.3727 19.7914C14.6167 18.6162 13.6248 17.8845 11.9203 16.7378C9.95058 15.4125 11.2275 14.684 12.3501 13.4935C12.6438 13.182 17.7486 8.44121 17.8474 8.01121C17.8597 7.95738 17.8712 7.75688 17.7546 7.65105C17.6379 7.54522 17.4657 7.58138 17.3415 7.61013C17.1654 7.65096 14.3602 9.54405 8.92608 13.2894C8.12983 13.8476 7.40866 14.1195 6.7625 14.1053C6.05016 14.0896 4.67992 13.6941 3.66125 13.356C2.41183 12.9413 1.41878 12.7221 1.50525 12.0179C1.55029 11.651 2.04502 11.2759 2.9895 10.8924Z" fill="white"/>
</svg>
