<svg width="37" height="28" viewBox="0 0 37 28" fill="none" xmlns="http://www.w3.org/2000/svg">
<path d="M18.4404 1.05005C13.34 1.05005 8.60115 1.41345 5.89709 1.97837C5.89133 1.9799 5.88558 1.98146 5.87984 1.98308C3.84262 2.43958 1.92433 3.89883 1.52049 6.18405C1.51996 6.18718 1.51943 6.19032 1.51892 6.19346C1.20868 8.03526 0.891678 10.4362 0.891678 13.896C0.891678 17.3493 1.20977 19.6866 1.60203 21.6253C2.01576 23.8431 3.88978 25.3465 5.95825 25.809C5.96815 25.8117 5.97808 25.8143 5.98804 25.8168C8.81019 26.3729 13.4153 26.742 18.5157 26.742C23.6161 26.742 28.2236 26.3729 31.0465 25.8168C31.0564 25.8143 31.0664 25.8117 31.0763 25.809C33.1135 25.3525 35.0318 23.8932 35.4356 21.608C35.4367 21.6023 35.4378 21.5965 35.4388 21.5908C35.7442 19.7114 36.1401 17.3128 36.2181 13.8474C36.2182 13.8385 36.2182 13.8296 36.2181 13.8208C36.2181 10.3535 35.8213 7.93764 35.4341 6.0241C35.0236 3.80156 33.1474 2.29408 31.0763 1.83097C31.0446 1.82393 31.0127 1.81818 30.9806 1.81372C28.2266 1.42656 23.5416 1.05005 18.4404 1.05005ZM18.4404 3.45867C23.3864 3.45867 27.9695 3.82908 30.5713 4.19098C31.8501 4.48493 32.8661 5.37805 33.0662 6.4616C33.0672 6.46841 33.0682 6.4752 33.0693 6.48199C33.443 8.32576 33.8064 10.518 33.8079 13.8035C33.7329 17.0995 33.3686 19.3111 33.0631 21.1909C32.8544 22.3619 31.8762 23.1567 30.5604 23.4552C28.033 23.9511 23.4862 24.3334 18.5157 24.3334C13.5444 24.3334 8.9988 23.9496 6.47259 23.4537C5.18907 23.1621 4.16896 22.2663 3.96831 21.1799C3.96681 21.1731 3.96524 21.1663 3.96361 21.1595C3.59417 19.3365 3.3003 17.2108 3.3003 13.896C3.3003 10.5871 3.59369 8.37385 3.89148 6.6043C4.09896 5.43019 5.07982 4.63343 6.39889 4.33524C8.73918 3.84744 13.4646 3.45867 18.4404 3.45867ZM15.7135 7.09042C14.2743 7.13712 12.9348 8.29626 12.9348 9.87068V17.1201C12.9348 19.2193 15.3165 20.5806 17.1405 19.5506C17.1405 19.5501 17.1405 19.5496 17.1405 19.5491L23.5556 15.9252C25.3928 14.8872 25.3928 12.1019 23.5556 11.064L17.1405 7.44011C16.6845 7.18261 16.1932 7.07485 15.7135 7.09042ZM15.7229 9.46454C15.7953 9.46846 15.8742 9.49109 15.955 9.53667L22.3701 13.1621C22.6959 13.3462 22.6959 13.6446 22.3701 13.8286L15.955 17.4525C15.6321 17.6348 15.3434 17.4648 15.3434 17.1201V9.87068C15.3434 9.69832 15.4158 9.56985 15.5284 9.50688C15.5848 9.47539 15.6505 9.46062 15.7229 9.46454Z" fill="#F9D073" stroke="black" stroke-width="1.00219"/>
</svg>
