<svg width="26" height="26" viewBox="0 0 26 26" fill="none" xmlns="http://www.w3.org/2000/svg">
<path d="M8.35645 0.82959C4.3419 0.82959 1.0672 4.10429 1.0672 8.11884V17.6265C1.0672 21.6406 4.34179 24.9158 8.35645 24.9158H17.8642C21.8783 24.9158 25.1534 21.6407 25.1534 17.6265V8.11884C25.1534 4.10418 21.8782 0.82959 17.8642 0.82959H8.35645ZM8.35645 2.73113H17.8642C20.8504 2.73113 23.2519 5.13201 23.2519 8.11884V17.6265C23.2519 20.6126 20.8503 23.0143 17.8642 23.0143H8.35645C5.36962 23.0143 2.96874 20.6128 2.96874 17.6265V8.11884C2.96874 5.1319 5.36951 2.73113 8.35645 2.73113ZM19.4488 5.26652C18.7484 5.26652 18.1811 5.83382 18.1811 6.53422C18.1811 7.23462 18.7484 7.80191 19.4488 7.80191C20.1492 7.80191 20.7165 7.23462 20.7165 6.53422C20.7165 5.83382 20.1492 5.26652 19.4488 5.26652ZM13.1103 6.53422C9.62108 6.53422 6.77183 9.38347 6.77183 12.8727C6.77183 16.3619 9.62108 19.2112 13.1103 19.2112C16.5995 19.2112 19.4488 16.3619 19.4488 12.8727C19.4488 9.38347 16.5995 6.53422 13.1103 6.53422ZM13.1103 8.43576C15.5716 8.43576 17.5472 10.4113 17.5472 12.8727C17.5472 15.334 15.5716 17.3096 13.1103 17.3096C10.649 17.3096 8.67337 15.334 8.67337 12.8727C8.67337 10.4113 10.649 8.43576 13.1103 8.43576Z" fill="#F9D073" stroke="black" stroke-width="0.501094"/>
</svg>
