<svg width="24" height="24" viewBox="0 0 24 24" fill="none" xmlns="http://www.w3.org/2000/svg">
<path d="M7.3125 0.125C3.35399 0.125 0.125 3.35399 0.125 7.3125V16.6875C0.125 20.6455 3.35388 23.875 7.3125 23.875H16.6875C20.6456 23.875 23.875 20.6456 23.875 16.6875V7.3125C23.875 3.35388 20.6455 0.125 16.6875 0.125H7.3125ZM7.3125 2H16.6875C19.632 2 22 4.36737 22 7.3125V16.6875C22 19.6319 19.6319 22 16.6875 22H7.3125C4.36737 22 2 19.632 2 16.6875V7.3125C2 4.36726 4.36726 2 7.3125 2ZM18.25 4.5C17.5594 4.5 17 5.05937 17 5.75C17 6.44063 17.5594 7 18.25 7C18.9406 7 19.5 6.44063 19.5 5.75C19.5 5.05937 18.9406 4.5 18.25 4.5ZM12 5.75C8.55949 5.75 5.75 8.55949 5.75 12C5.75 15.4405 8.55949 18.25 12 18.25C15.4405 18.25 18.25 15.4405 18.25 12C18.25 8.55949 15.4405 5.75 12 5.75ZM12 7.625C14.427 7.625 16.375 9.57301 16.375 12C16.375 14.427 14.427 16.375 12 16.375C9.57301 16.375 7.625 14.427 7.625 12C7.625 9.57301 9.57301 7.625 12 7.625Z" fill="white"/>
</svg>
