<svg width="30" height="28" viewBox="0 0 30 28" fill="none" xmlns="http://www.w3.org/2000/svg">
<path d="M26.0711 3.23439C27.2116 3.23439 27.5118 4.17105 27.1745 6.37028C26.7884 8.88516 25.6762 17.2116 24.7892 22.3947C24.4498 24.3781 23.8379 25.2333 22.9475 25.2333C22.458 25.2333 21.8846 24.9749 21.2261 24.5029C20.3336 23.8628 15.8281 20.6278 14.8498 19.8681C13.9573 19.1759 12.7261 18.3427 14.2703 16.7029C14.82 16.1185 18.4216 12.3844 21.2275 9.47827C21.527 9.16777 21.2761 8.6943 20.9435 8.6943C20.8678 8.6943 20.7873 8.71926 20.7089 8.77578C16.9268 11.4991 11.6822 15.2788 11.0149 15.7713C10.3476 16.2632 9.69717 16.5788 8.83041 16.5788C8.38756 16.5788 7.88792 16.4966 7.30039 16.3131C5.98672 15.9035 4.70415 15.4153 4.20451 15.2289C2.28099 14.5124 2.73736 13.5838 4.60544 12.6912C12.0953 9.11418 21.7873 4.75242 23.1253 4.14903C24.4288 3.56105 25.397 3.23439 26.0711 3.23439ZM26.0711 1.03223C25.1462 1.03223 24.0326 1.35595 22.3484 2.11422L22.1463 2.20525C14.9559 5.44684 8.43624 8.455 3.7887 10.6748C3.06257 11.022 0.853734 12.0768 0.939599 14.2834C0.976109 15.2355 1.45885 16.5333 3.54666 17.3106L3.70081 17.3679C4.28361 17.5859 5.49722 18.0403 6.74125 18.4286C7.49848 18.665 8.1827 18.7795 8.83108 18.7795C9.95612 18.7795 10.8276 18.4308 11.5091 18.0249C11.5058 18.1482 11.5085 18.2723 11.5172 18.3971C11.6403 20.0942 12.8492 21.025 13.5713 21.5814L13.672 21.6592C14.7382 22.4872 19.5636 25.9483 20.1099 26.3395C21.1382 27.0765 22.0665 27.434 22.9488 27.434C24.3362 27.434 26.1285 26.6295 26.7844 22.7963C27.407 19.1605 28.1264 14.0815 28.6518 10.3731C28.8755 8.79046 29.0594 7.49265 29.1764 6.73144C29.4124 5.19432 29.5205 3.45314 28.5355 2.1913C28.1217 1.66278 27.359 1.03223 26.0711 1.03223Z" fill="#F9D073" stroke="black" stroke-width="0.701532"/>
</svg>
