<svg width="136" height="32" viewBox="0 0 136 32" fill="none" xmlns="http://www.w3.org/2000/svg">
<path fill-rule="evenodd" clip-rule="evenodd" d="M27.2946 9.61141L16.0005 2.82353L4.70634 9.61141L4.70634 15.374L1.88281 18.9881V9.61141C1.88281 8.62035 2.40241 7.70186 3.25185 7.19133L14.546 0.403452C15.441 -0.134484 16.5599 -0.134484 17.455 0.403452L28.7491 7.19133C29.5985 7.70186 30.1181 8.62035 30.1181 9.61141V22.3883C30.1181 23.3794 29.5985 24.2979 28.7491 24.8084L17.4549 31.5963C16.5599 32.1342 15.441 32.1342 14.546 31.5963L3.28965 24.8311L3.25185 24.8084C2.40241 24.2979 1.88281 23.3794 1.88281 22.3883V22.0456L2.56193 21.1764L4.70634 18.4315L7.09644 15.3722C7.69171 14.6102 8.76744 14.4232 9.58495 14.9395L12.7938 16.9662C13.2019 17.2239 13.7387 17.1312 14.0367 16.7515L19.3351 10.0016C19.9285 9.24558 20.9962 9.05804 21.8117 9.56656L25.4122 11.8116V15.139L21.7513 12.8563C21.3435 12.6021 20.8097 12.6958 20.513 13.0739L15.2086 19.8315C14.6126 20.5908 13.5389 20.7762 12.7227 20.2608L9.51718 18.2362C9.10842 17.9781 8.57056 18.0716 8.27293 18.4525L5.04096 22.5895L16.0005 29.1762L27.2946 22.3883V9.61141Z" fill="#F9D073"/>
<path d="M27.2941 9.61141L16 2.82353V0C16.5035 0 17.007 0.134484 17.4545 0.403452L28.7486 7.19133C29.5981 7.70186 30.1176 8.62035 30.1176 9.61141V22.3883C30.1176 23.3794 29.5981 24.2979 28.7486 24.8084L17.4545 31.5963C17.007 31.8653 16.5035 31.9998 16 31.9998V29.1762L27.2941 22.3883V9.61141Z" fill="#B28736"/>
<path d="M21.8113 9.56656L25.4118 11.8116V15.139L21.7509 12.8563C21.3431 12.6021 20.8093 12.6958 20.5125 13.0739L16 18.8227V14.2498L19.3346 10.0016C19.9281 9.24558 20.9957 9.05804 21.8113 9.56656Z" fill="#B28736"/>
<path d="M51.472 10.2453C51.472 11.6261 51.1983 12.7021 50.651 13.4734C50.1161 14.2322 49.3573 14.7608 48.3745 15.0594C47.3918 15.3579 46.2349 15.5072 44.9039 15.5072H42.0117V5.00202H44.9039C46.2349 5.00202 47.3918 5.20106 48.3745 5.59912C49.3573 5.98475 50.1161 6.56319 50.651 7.33444C51.1983 8.10569 51.472 9.07597 51.472 10.2453ZM43.8963 13.9398H45.445C46.266 13.9398 46.9751 13.8465 47.5722 13.6599C48.1693 13.4609 48.6296 13.0939 48.953 12.559C49.2764 12.0241 49.4381 11.2467 49.4381 10.2266C49.4381 9.02 49.0774 8.12435 48.3559 7.53969C47.6468 6.94259 46.6765 6.64404 45.445 6.64404H43.8963V13.9398Z" fill="#F9D073"/>
<path d="M58.2543 15.7684C56.5625 15.7684 55.2688 15.2771 54.3732 14.2944C53.4775 13.2992 53.0297 11.9619 53.0297 10.2826C53.0297 9.17549 53.2225 8.21765 53.6081 7.40907C53.9938 6.58806 54.5722 5.95365 55.3435 5.50582C56.1272 5.04556 57.0974 4.81543 58.2543 4.81543C59.971 4.81543 61.2709 5.31301 62.1541 6.30817C63.0373 7.2909 63.4789 8.61571 63.4789 10.2826C63.4789 11.3649 63.2799 12.3227 62.8818 13.1561C62.4838 13.9772 61.8991 14.6178 61.1278 15.0781C60.3566 15.5383 59.3988 15.7684 58.2543 15.7684ZM58.2357 13.9398C59.3552 13.9398 60.1949 13.5915 60.7547 12.8949C61.3269 12.1983 61.613 11.3275 61.613 10.2826C61.613 9.57356 61.4886 8.94536 61.2398 8.39802C60.991 7.83824 60.6178 7.40285 60.1202 7.09187C59.6227 6.76844 58.9945 6.60672 58.2357 6.60672C57.141 6.60672 56.3075 6.94259 55.7353 7.61433C55.1631 8.28606 54.877 9.17549 54.877 10.2826C54.877 10.9668 54.9952 11.5888 55.2315 12.1485C55.4803 12.6959 55.8535 13.1313 56.3511 13.4547C56.8486 13.7781 57.4768 13.9398 58.2357 13.9398Z" fill="#F9D073"/>
<path d="M69.6235 15.7684C68.1308 15.7684 66.9926 15.3579 66.2089 14.5369C65.4376 13.7035 65.052 12.5342 65.052 11.029V5.00202H67.0859V11.0103C67.0859 11.7816 67.2102 12.3787 67.459 12.8016C67.7078 13.2246 68.025 13.5231 68.4107 13.6973C68.7963 13.8714 69.2006 13.9585 69.6235 13.9585C70.0962 13.9585 70.5254 13.8776 70.911 13.7159C71.2966 13.5418 71.6014 13.2432 71.8253 12.8203C72.0617 12.3973 72.1798 11.794 72.1798 11.0103V5.00202H74.1951V11.029C74.1951 12.559 73.8094 13.7346 73.0382 14.5556C72.2794 15.3642 71.1411 15.7684 69.6235 15.7684Z" fill="#F9D073"/>
<path d="M75.776 15.5072V5.00202H79.937C80.3226 5.00202 80.7456 5.0269 81.2059 5.07666C81.6786 5.12642 82.1326 5.23837 82.568 5.41253C83.0034 5.58668 83.3579 5.86035 83.6316 6.23354C83.9177 6.60672 84.0607 7.12297 84.0607 7.78226C84.0607 8.18033 83.9799 8.54729 83.8182 8.88316C83.6689 9.21903 83.3828 9.49892 82.9598 9.72283C82.5493 9.9343 81.9584 10.0587 81.1872 10.096V10.152C82.0828 10.1769 82.7732 10.3075 83.2584 10.5438C83.7435 10.7678 84.0794 11.0663 84.266 11.4395C84.4526 11.8127 84.5459 12.2294 84.5459 12.6897C84.5459 13.3614 84.3966 13.8901 84.098 14.2757C83.7995 14.6489 83.4139 14.9288 82.9412 15.1154C82.4685 15.2895 81.9709 15.4015 81.4484 15.4512C80.9384 15.4886 80.4657 15.5072 80.0303 15.5072H75.776ZM77.6419 9.3683H79.7131C80.1485 9.3683 80.5528 9.34342 80.926 9.29367C81.3116 9.24391 81.6164 9.12573 81.8403 8.93914C82.0642 8.74011 82.1761 8.4229 82.1761 7.98751C82.1761 7.52725 82.058 7.1976 81.8216 6.99857C81.5977 6.79954 81.2991 6.67514 80.926 6.62538C80.5528 6.57563 80.1485 6.55075 79.7131 6.55075H77.6419V9.3683ZM77.6606 13.9772H79.881C80.3662 13.9772 80.814 13.9461 81.2245 13.8839C81.635 13.8217 81.9647 13.6848 82.2135 13.4734C82.4622 13.2494 82.5866 12.9011 82.5866 12.4284C82.5866 11.9433 82.456 11.5888 82.1948 11.3648C81.9336 11.1285 81.5915 10.9792 81.1685 10.917C80.7456 10.8548 80.2791 10.8237 79.7691 10.8237H77.6606V13.9772Z" fill="#F9D073"/>
<path d="M86.1426 15.5072V5.00202H88.0458V13.8839H93.2331V15.5072H86.1426Z" fill="#F9D073"/>
<path d="M96.6986 13.9772H102.502V15.5072H94.814V5.00202H102.315V6.64404H96.6986V9.40562H101.009V10.973H96.6986V13.9772Z" fill="#F9D073"/>
<path d="M104.076 6.64404V5.00202H112.193V6.64404H109.077V15.5072H107.174V6.64404H104.076Z" fill="#B28736"/>
<path d="M118.31 15.7684C116.619 15.7684 115.325 15.2771 114.429 14.2944C113.534 13.2992 113.086 11.9619 113.086 10.2826C113.086 9.17549 113.279 8.21765 113.664 7.40907C114.05 6.58806 114.628 5.95365 115.399 5.50582C116.183 5.04556 117.153 4.81543 118.31 4.81543C120.027 4.81543 121.327 5.31301 122.21 6.30817C123.093 7.2909 123.535 8.61571 123.535 10.2826C123.535 11.3649 123.336 12.3227 122.938 13.1561C122.54 13.9772 121.955 14.6178 121.184 15.0781C120.413 15.5383 119.455 15.7684 118.31 15.7684ZM118.292 13.9398C119.411 13.9398 120.251 13.5915 120.811 12.8949C121.383 12.1983 121.669 11.3275 121.669 10.2826C121.669 9.57356 121.545 8.94536 121.296 8.39802C121.047 7.83824 120.674 7.40285 120.176 7.09187C119.679 6.76844 119.05 6.60672 118.292 6.60672C117.197 6.60672 116.364 6.94259 115.791 7.61433C115.219 8.28606 114.933 9.17549 114.933 10.2826C114.933 10.9668 115.051 11.5888 115.288 12.1485C115.536 12.6959 115.909 13.1313 116.407 13.4547C116.905 13.7781 117.533 13.9398 118.292 13.9398Z" fill="#B28736"/>
<path d="M126.993 15.5072H125.089V5.00202H129.306C130.476 5.00202 131.384 5.29435 132.031 5.87901C132.677 6.46367 133.001 7.34688 133.001 8.52863C133.001 9.56112 132.665 10.3697 131.993 10.9543C131.334 11.539 130.438 11.8313 129.306 11.8313H126.993V15.5072ZM129.045 6.55075H126.993V10.4319H129.045C129.717 10.4319 130.258 10.2702 130.668 9.94674C131.079 9.62331 131.284 9.13817 131.284 8.49131C131.284 7.83202 131.079 7.34688 130.668 7.03589C130.27 6.71246 129.729 6.55075 129.045 6.55075Z" fill="#B28736"/>
<g opacity="0.8">
<path d="M42 27.3855V21.0861H46.5609V21.9043H43.0976V23.8236H46.3229V24.6387H43.0976V26.5673H46.6035V27.3855H42Z" fill="white"/>
<path d="M51.0965 27.3855H48.7415V21.0861H51.1711C51.8839 21.0861 52.496 21.2122 53.0075 21.4645C53.519 21.7146 53.9109 22.0745 54.1832 22.5441C54.4579 23.0116 54.5953 23.5724 54.5953 24.2266C54.5953 24.8828 54.4567 25.4467 54.1797 25.9183C53.905 26.3899 53.5072 26.7529 52.9862 27.0071C52.4652 27.2594 51.8353 27.3855 51.0965 27.3855ZM49.8391 26.555H51.0361C51.5902 26.555 52.0508 26.4648 52.4179 26.2843C52.7849 26.1018 53.0596 25.8383 53.2419 25.4938C53.4243 25.1473 53.5154 24.7249 53.5154 24.2266C53.5154 23.7324 53.4243 23.313 53.2419 22.9685C53.062 22.6241 52.7932 22.3626 52.4356 22.1842C52.078 22.0058 51.634 21.9166 51.1036 21.9166H49.8391V26.555Z" fill="white"/>
<path d="M61.3527 21.0861H62.4539V25.2293C62.4539 25.6702 62.3343 26.0608 62.0951 26.4012C61.8559 26.7395 61.5197 27.0061 61.0863 27.2009C60.653 27.3937 60.145 27.4901 59.5625 27.4901C58.9823 27.4901 58.4755 27.3937 58.0422 27.2009C57.6088 27.0061 57.2726 26.7395 57.0334 26.4012C56.7942 26.0608 56.6746 25.6702 56.6746 25.2293V21.0861H57.7722V25.1524C57.7722 25.4374 57.8445 25.6907 57.9889 25.9121C58.1357 26.1336 58.3429 26.3079 58.6105 26.435C58.8781 26.5601 59.1954 26.6227 59.5625 26.6227C59.9319 26.6227 60.2504 26.5601 60.518 26.435C60.7879 26.3079 60.994 26.1336 61.136 25.9121C61.2805 25.6907 61.3527 25.4374 61.3527 25.1524V21.0861Z" fill="white"/>
<path d="M70.8062 23.1346H69.6979C69.6553 22.9296 69.576 22.7491 69.46 22.5933C69.3439 22.4375 69.2018 22.3052 69.0337 22.1965C68.8656 22.0878 68.6773 22.0058 68.4689 21.9504C68.2629 21.8951 68.0439 21.8674 67.8118 21.8674C67.3926 21.8674 67.0173 21.9586 66.6858 22.1411C66.3566 22.3236 66.0961 22.5912 65.9043 22.9439C65.7149 23.2966 65.6202 23.7273 65.6202 24.2358C65.6202 24.7484 65.7149 25.1811 65.9043 25.5338C66.0961 25.8865 66.3578 26.1531 66.6893 26.3335C67.0209 26.514 67.3938 26.6042 67.8082 26.6042C68.0379 26.6042 68.2558 26.5776 68.4618 26.5242C68.6702 26.4689 68.8585 26.3879 69.0266 26.2812C69.1947 26.1746 69.3368 26.0444 69.4529 25.8906C69.5713 25.7348 69.653 25.5564 69.6979 25.3554L70.8062 25.3585C70.747 25.6681 70.6321 25.9532 70.4616 26.2136C70.2935 26.4719 70.0768 26.6955 69.8116 26.8841C69.5488 27.0707 69.248 27.2153 68.9094 27.3178C68.5708 27.4203 68.2013 27.4716 67.8011 27.4716C67.1712 27.4716 66.61 27.3424 66.1175 27.084C65.6249 26.8236 65.2365 26.4514 64.9524 25.9675C64.6706 25.4836 64.5297 24.9063 64.5297 24.2358C64.5297 23.5632 64.6718 22.986 64.9559 22.5041C65.2401 22.0202 65.6285 21.649 66.121 21.3906C66.6136 21.1302 67.1736 21 67.8011 21C68.1871 21 68.5471 21.0482 68.881 21.1446C69.2172 21.2389 69.5192 21.3783 69.7867 21.5629C70.0543 21.7454 70.2757 21.9689 70.451 22.2334C70.6262 22.4959 70.7446 22.7963 70.8062 23.1346Z" fill="white"/>
<path d="M73.3997 27.3855H72.2346L74.8525 21.0861H76.1206L78.7385 27.3855H77.5734L75.5168 22.2303H75.4599L73.3997 27.3855ZM73.5951 24.9186H77.3745V25.7184H73.5951V24.9186Z" fill="white"/>
<path d="M79.2851 21.9043V21.0861H84.9152V21.9043H82.6454V27.3855H81.5513V21.9043H79.2851Z" fill="white"/>
<path d="M87.9713 21.0861V27.3855H86.8737V21.0861H87.9713Z" fill="white"/>
<path d="M96.6034 24.2358C96.6034 24.9084 96.4613 25.4866 96.1771 25.9706C95.893 26.4525 95.5034 26.8236 95.0085 27.084C94.516 27.3424 93.9559 27.4716 93.3284 27.4716C92.6985 27.4716 92.1361 27.3424 91.6411 27.084C91.1486 26.8236 90.7602 26.4514 90.4761 25.9675C90.1919 25.4836 90.0498 24.9063 90.0498 24.2358C90.0498 23.5632 90.1919 22.986 90.4761 22.5041C90.7602 22.0202 91.1486 21.649 91.6411 21.3906C92.1361 21.1302 92.6985 21 93.3284 21C93.9559 21 94.516 21.1302 95.0085 21.3906C95.5034 21.649 95.893 22.0202 96.1771 22.5041C96.4613 22.986 96.6034 23.5632 96.6034 24.2358ZM95.5165 24.2358C95.5165 23.7232 95.4206 23.2915 95.2287 22.9409C95.0393 22.5882 94.7788 22.3216 94.4473 22.1411C94.1181 21.9586 93.7452 21.8674 93.3284 21.8674C92.9092 21.8674 92.5351 21.9586 92.2059 22.1411C91.8768 22.3216 91.6163 22.5882 91.4245 22.9409C91.235 23.2915 91.1403 23.7232 91.1403 24.2358C91.1403 24.7484 91.235 25.1811 91.4245 25.5338C91.6163 25.8845 91.8768 26.151 92.2059 26.3335C92.5351 26.514 92.9092 26.6042 93.3284 26.6042C93.7452 26.6042 94.1181 26.514 94.4473 26.3335C94.7788 26.151 95.0393 25.8845 95.2287 25.5338C95.4206 25.1811 95.5165 24.7484 95.5165 24.2358Z" fill="white"/>
<path d="M104.558 21.0861V27.3855H103.549L99.8514 22.7655H99.7839V27.3855H98.6863V21.0861H99.7022L103.403 25.7122H103.471V21.0861H104.558Z" fill="white"/>
</g>
</svg>
